<svg width="60" height="60" viewBox="0 0 60 60" fill="none" xmlns="http://www.w3.org/2000/svg">
<path d="M42 56H18C15.791 56 14 54.209 14 52V15C14 12.791 15.791 11 18 11H42C44.209 11 46 12.791 46 15V52C46 54.209 44.209 56 42 56Z" stroke="white" stroke-width="2" stroke-miterlimit="10"/>
<path d="M14 48H35" stroke="white" stroke-width="2" stroke-miterlimit="10"/>
<path d="M39 48H46" stroke="white" stroke-width="2" stroke-miterlimit="10"/>
<path d="M23 51H21V53H23V51Z" fill="white"/>
<path d="M27 51H25V53H27V51Z" fill="white"/>
<path d="M19 51H17V53H19V51Z" fill="white"/>
<path d="M50 8V23" stroke="white" stroke-width="2" stroke-miterlimit="10"/>
<path d="M50 25V29" stroke="white" stroke-width="2" stroke-miterlimit="10"/>
<path d="M10 14V17" stroke="white" stroke-width="2" stroke-miterlimit="10"/>
<path d="M10 20V35" stroke="white" stroke-width="2" stroke-miterlimit="10"/>
<path d="M21 11V6C21 4.895 21.895 4 23 4H37C38.105 4 39 4.895 39 6V11" stroke="white" stroke-width="2" stroke-miterlimit="10"/>
<path d="M10 41V48" stroke="white" stroke-width="2" stroke-miterlimit="10"/>
<path d="M33 28C32.448 28 32 27.552 32 27C32 26.931 32.007 26.864 32.02 26.799L33.98 17.201C33.993 17.136 34 17.069 34 17C34 16.448 33.552 16 33 16C32.694 16 32.42 16.138 32.236 16.354L21.236 29.354C21.089 29.529 21 29.754 21 30C21 30.552 21.448 31 22 31H27C27.552 31 28 31.448 28 32C28 32.069 27.993 32.136 27.98 32.201L26.02 41.799C26.007 41.864 26 41.931 26 42C26 42.552 26.448 43 27 43C27.306 43 27.58 42.862 27.764 42.646L38.764 29.646C38.911 29.471 39 29.246 39 29C39 28.448 38.552 28 38 28H33Z" stroke="white" stroke-width="2" stroke-miterlimit="10"/>
</svg>
